<svg xmlns="http://www.w3.org/2000/svg" viewBox="0 0 600 600" width="600" height="600">
  <rect width="600" height="600" fill="#e9e6df"/>
  <circle cx="300" cy="292" r="214" fill="#f2efe8"/>
  <ellipse cx="300" cy="488" rx="214" ry="21" fill="#000" opacity=".07"/>

  <path d="
    M 88 454
    C 76 460, 92 470, 120 470
    L 486 470
    C 514 470, 526 460, 512 454 Z" fill="#c8d92a"/>
  
  <path d="
    M 86 402
    C 76 446, 86 456, 112 458
    L 494 458
    C 518 456, 524 442, 512 402
    C 470 392, 130 392, 86 402 Z" fill="#ffffff" stroke="#e9e9e9" stroke-width="2"/>
  <path d="M 92 428 C 220 438, 380 438, 508 426"
      stroke="#efefef" stroke-width="4" fill="none"/>
  <ellipse cx="446" cy="430" rx="42" ry="18" fill="#fcfcfc"
        stroke="#e1e1e1" stroke-width="3"/>

  <g transform="translate(0 -20)">
    <path d="
    M 322 318
    C 314 274, 322 272, 352 264
    C 384 256, 404 276, 402 292
    L 396 328 Z" fill="#d6d4cd" stroke="#b6b4ad" stroke-width="2.5"/>
    <path d="
    M 94 412
    C 88 372, 106 344, 150 332
    L 264 308
    C 300 299, 330 294, 350 306
    C 372 284, 416 270, 452 274
    C 478 284, 498 348, 504 412
    Z" fill="#f2f2ef" stroke="#d0d0cd" stroke-width="2.5" stroke-linejoin="round"/>
    <path d="
    M 94 412
    C 88 374, 106 346, 150 334
    L 172 330 L 182 412 Z" fill="#dedcd5"/>
    <path d="
    M 430 288
    C 468 300, 494 358, 500 412
    L 442 412 Z" fill="#dedcd5"/>
    <path d="M 146 384
      C 208 378, 296 356, 380 300
      C 356 348, 268 392, 160 402 Z" fill="#1a1c20"/>
    <path d="M 244 314 C 300 300, 332 296, 350 306"
      stroke="#d0d0cd" stroke-width="3" fill="none" opacity=".7"/>
    <path d="M 246 316 l 30 -19" stroke="#a4a4a1" stroke-width="8.5"
         stroke-linecap="round" fill="none"/><circle cx="246" cy="316" r="4.2" fill="#b6b6b3"/><circle cx="276" cy="297" r="4.2" fill="#b6b6b3"/><path d="M 268 313 l 30 -19.75" stroke="#a4a4a1" stroke-width="8.5"
         stroke-linecap="round" fill="none"/><circle cx="268" cy="313" r="4.2" fill="#b6b6b3"/><circle cx="298" cy="293.25" r="4.2" fill="#b6b6b3"/><path d="M 290 310 l 30 -20.5" stroke="#a4a4a1" stroke-width="8.5"
         stroke-linecap="round" fill="none"/><circle cx="290" cy="310" r="4.2" fill="#b6b6b3"/><circle cx="320" cy="289.5" r="4.2" fill="#b6b6b3"/><path d="M 312 307 l 30 -21.25" stroke="#a4a4a1" stroke-width="8.5"
         stroke-linecap="round" fill="none"/><circle cx="312" cy="307" r="4.2" fill="#b6b6b3"/><circle cx="342" cy="285.75" r="4.2" fill="#b6b6b3"/><path d="M 334 304 l 30 -22" stroke="#a4a4a1" stroke-width="8.5"
         stroke-linecap="round" fill="none"/><circle cx="334" cy="304" r="4.2" fill="#b6b6b3"/><circle cx="364" cy="282" r="4.2" fill="#b6b6b3"/>
    <path d="
    M 352 304
    C 378 278, 420 276, 450 282
    C 436 304, 396 296, 358 320 Z" fill="#bebebb" opacity=".5"/>
    <path d="M 352 304 C 378 278, 420 276, 450 282"
      stroke="#cacac7" stroke-width="4" fill="none" stroke-linecap="round"/>
    <rect x="452" y="292" width="15" height="30" rx="7" fill="#1a1c20" opacity=".8"/>
    <path d="M 100 408 C 220 398, 380 398, 500 408"
      stroke="#dadad7" stroke-width="2" fill="none" opacity=".55"/>
  </g></svg>